<?xml version="1.0" standalone="no"?>
<!DOCTYPE svg PUBLIC "-//W3C//DTD SVG 20010904//EN"
 "http://www.w3.org/TR/2001/REC-SVG-20010904/DTD/svg10.dtd">
<svg version="1.0" xmlns="http://www.w3.org/2000/svg"
 width="128.000000pt" height="128.000000pt" viewBox="0 0 128.000000 128.000000"
 preserveAspectRatio="xMidYMid meet">

<g transform="translate(0.000000,128.000000) scale(0.100000,-0.100000)"
fill="#000000" stroke="none">
<path d="M502 1265 c-242 -55 -436 -253 -486 -498 -20 -96 -20 -158 0 -254 89
-431 573 -645 952 -421 72 42 178 148 220 219 119 203 119 455 0 658 -42 71
-148 177 -220 219 -135 80 -320 111 -466 77z m98 -220 c0 -134 1 -145 20 -155
14 -8 26 -8 40 0 19 10 20 21 20 156 l0 146 43 -7 c150 -23 312 -129 383 -251
36 -61 71 -153 78 -206 l7 -48 -145 0 c-135 0 -146 -1 -156 -20 -8 -14 -8 -26
0 -40 10 -19 21 -20 156 -20 l145 0 -7 -47 c-7 -54 -42 -146 -78 -207 -71
-122 -233 -228 -383 -251 l-43 -7 0 146 c0 135 -1 146 -20 156 -14 8 -26 8
-40 0 -19 -10 -20 -21 -20 -156 l0 -146 -42 7 c-151 23 -313 129 -384 251 -36
61 -71 153 -78 207 l-7 47 145 0 c135 0 146 1 156 20 8 14 8 26 0 40 -10 19
-21 20 -156 20 l-145 0 7 48 c7 53 42 145 78 206 75 128 264 246 409 255 15 1
17 -12 17 -144z"/>
</g>
</svg>
